<?xml version="1.0" standalone="no"?>
<!DOCTYPE svg PUBLIC "-//W3C//DTD SVG 20010904//EN"
 "http://www.w3.org/TR/2001/REC-SVG-20010904/DTD/svg10.dtd">
<svg version="1.0" xmlns="http://www.w3.org/2000/svg"
 width="260.000000pt" height="260.000000pt" viewBox="0 0 260.000000 260.000000"
 preserveAspectRatio="xMidYMid meet">
<metadata>
Created by potrace 1.11, written by Peter Selinger 2001-2013
</metadata>
<g transform="translate(0.000000,260.000000) scale(0.100000,-0.100000)"
fill="#000000" stroke="none">
<path d="M1222 1746 c0 -18 -8 -48 -17 -67 -21 -42 -74 -99 -92 -99 -21 0 -15
-16 12 -28 38 -17 32 -42 -10 -43 -19 -1 -38 -2 -42 -3 -5 -1 -33 -6 -63 -10
-30 -5 -64 -10 -75 -12 -11 -2 -33 -6 -50 -9 -16 -3 -81 -15 -144 -27 -112
-20 -115 -20 -149 -2 -36 20 -69 21 -86 4 -7 -7 -4 -15 12 -26 38 -26 25 -34
-50 -33 -64 1 -74 4 -92 27 -26 33 -138 105 -259 167 -83 42 -100 47 -108 35
-15 -22 -2 -118 33 -250 44 -164 44 -166 10 -240 -38 -82 -46 -119 -33 -153
20 -51 87 -26 223 82 107 85 149 115 168 118 8 2 52 4 98 5 105 2 119 -8 191
-130 62 -107 77 -113 140 -56 l40 35 38 -19 c50 -26 103 -40 183 -48 36 -3 67
-8 70 -11 3 -3 4 -27 3 -54 -1 -37 3 -51 15 -58 41 -21 107 12 146 73 23 35
32 41 64 42 64 2 274 16 296 19 12 2 52 6 89 10 37 3 76 8 85 9 9 2 40 7 67
10 28 4 66 10 85 12 51 8 256 60 322 83 125 43 275 137 254 158 -4 5 -39 8
-77 8 -38 0 -69 0 -69 1 0 1 27 18 61 39 33 20 59 38 57 40 -28 25 -173 84
-272 110 -103 27 -275 58 -389 70 -32 4 -66 8 -76 10 -19 3 -171 16 -241 20
-25 2 -54 3 -66 4 -11 0 -36 16 -55 34 -49 47 -170 151 -199 170 -36 25 -48
21 -48 -17z"/>
</g>
</svg>
