<?xml version="1.0" encoding="utf-8"?>
<!-- Generator: Adobe Illustrator 13.0.0, SVG Export Plug-In . SVG Version: 6.00 Build 14948)  -->
<!DOCTYPE svg PUBLIC "-//W3C//DTD SVG 1.1//EN" "http://www.w3.org/Graphics/SVG/1.1/DTD/svg11.dtd">
<svg version="1.1" id="Layer_1" xmlns:sketch="http://www.bohemiancoding.com/sketch/ns"
	 xmlns="http://www.w3.org/2000/svg" xmlns:xlink="http://www.w3.org/1999/xlink" x="0px" y="0px" width="97px" height="36px"
	 viewBox="0 0 97 36" enable-background="new 0 0 97 36" xml:space="preserve">
<title>Slice 1</title>
<description>Created with Sketch (http://www.bohemiancoding.com/sketch)</description>
<g id="Page_1">
	<g id="Group" transform="translate(-2.000000, -28.000000)">
		<g id="Captions">
		</g>
		<g id="Your_Icon" transform="translate(2.000000, 28.000000)">
			<path id="Shape" fill="#FFFFFF" d="M0.854,5.658c0,0,12.283,5.568,13.785,8.837c0,0,4.595,0.177,5.391,0
				c0.796-0.177-1.062-1.856-1.59-1.679c-0.53,0.177,1.767-2.474,4.595,0.442c0,0,20.059-3.81,20.147-3.142
				c0,0,0.264-1.011-1.768-1.983c-2.032-0.972,2.74,0.795,4.418-6.981c0,0-2.916-5.391,10.338,7.158c0,0,28.277,0.884,38.971,7.6
				c0,0,2.562-0.265-4.242,3.357c0,0,6.98-0.354,6.01,0.44c0,0-5.303,9.632-46.305,11.046c0,0-1.679,4.329-5.038,4.418
				c-3.357,0.089-0.795-1.767-1.943-4.506c0,0-8.572-0.441-10.781-3.004c0,0-3.446,4.238-4.771,2.648
				c-1.326-1.592-2.651-5.303-4.507-7.068c0,0-0.795-0.885-2.563-1.061c-1.492-0.148-4.948,0.354-6.097,0.266
				c-1.148-0.09-12.459,11.223-14.05,7.863c-1.591-3.356,3.27-8.041,2.121-10.162C2.975,20.15-1.796,5.216,0.854,5.658L0.854,5.658z
				"/>
		</g>
	</g>
</g>
</svg>
